PathFileType	4	(X/Y/Z)	s02c0201.trc
DataRate	CameraRate	NumFrames	NumMarkers	Units	OrigDataRate	OrigDataStartFrame	OrigNumFrames
200	200	4	51	mm	200	0	2000
Frame#	Time	racr			lacr			c7			jug			rlel			rdr			llel			ldr			s2			lic			ric			lasi			rasi			rpsi			lpsi			rgt			lgt			rth1			rth2			rth3			rth4			rlfc			rmfc			rsh1			rsh2			rsh3			rsh4			rlmal			rmmal			rcal			rtoe			rmt5			rmt1			lth1			lth2			lth4			lth3			llfc			lmfc			lsh1			lsh2			lsh3			lsh4			llmal			lmmal			lcal			ltoe			lmt5			SBIKE			LBIKE			RBIKE			
		X1	Y1	Z1	X2	Y2	Z2	X3	Y3	Z3	X4	Y4	Z4	X5	Y5	Z5	X6	Y6	Z6	X7	Y7	Z7	X8	Y8	Z8	X9	Y9	Z9	X10	Y10	Z10	X11	Y11	Z11	X12	Y12	Z12	X13	Y13	Z13	X14	Y14	Z14	X15	Y15	Z15	X16	Y16	Z16	X17	Y17	Z17	X18	Y18	Z18	X19	Y19	Z19	X20	Y20	Z20	X21	Y21	Z21	X22	Y22	Z22	X23	Y23	Z23	X24	Y24	Z24	X25	Y25	Z25	X26	Y26	Z26	X27	Y27	Z27	X28	Y28	Z28	X29	Y29	Z29	X30	Y30	Z30	X31	Y31	Z31	X32	Y32	Z32	X33	Y33	Z33	X34	Y34	Z34	X35	Y35	Z35	X36	Y36	Z36	X37	Y37	Z37	X38	Y38	Z38	X39	Y39	Z39	X40	Y40	Z40	X41	Y41	Z41	X42	Y42	Z42	X43	Y43	Z43	X44	Y44	Z44	X45	Y45	Z45	X46	Y46	Z46	X47	Y47	Z47	X48	Y48	Z48	X49	Y49	Z49	X50	Y50	Z50	X51	Y51	Z51	
0	0.0000	463.211320	1314.696291	-147.678646	465.646017	1320.889894	-502.682691	481.189369	1357.441847	-331.366326	438.161956	1227.544358	-329.071571	585.917250	1071.094125	-134.066402	726.841845	889.611898	-122.390560	561.408607	1062.686235	-540.797418	708.442501	885.932100	-525.777218	0.662395	1097.779043	-325.277739	145.652179	1098.177913	-464.537290	128.685274	1115.633412	-188.676786	190.452293	1064.599327	-439.815199	177.598709	1081.323804	-208.465143	16.495265	1141.893282	-283.149284	25.502497	1154.008543	-368.880849	109.538541	1041.848427	-138.761981	88.904257	1000.591140	-496.000505	196.639013	1020.446457	-138.370689	282.490016	1015.920498	-147.336892	357.380101	981.932157	-122.352849	290.330989	1037.819112	-177.624755	484.696712	902.388345	-151.629471	480.721165	881.141626	-266.054745	457.313464	792.320152	-137.496979	426.814581	711.495512	-156.904515	364.373300	650.532235	-150.056914	437.268248	706.177597	-194.061498	290.810935	554.225163	-155.647889	298.051212	575.138691	-235.746309	212.390338	510.395427	-196.647398	497.248707	489.672507	-195.681177	388.931629	477.467327	-137.137454	414.740799	489.466084	-244.912642	186.255041	895.529536	-511.772543	247.768778	834.255368	-508.634491	276.496453	850.340608	-491.063520	268.361857	747.363969	-506.444579	316.474487	657.518100	-484.802588	318.703498	628.272077	-383.009851	276.256984	560.398387	-505.649865	257.113069	477.631431	-488.740833	197.542700	410.004974	-492.455864	274.926487	472.153548	-452.735508	134.058936	324.328055	-475.328287	151.417923	315.437703	-398.693859	57.969558	304.977695	-433.118612	303.861061	157.537801	-446.227314	197.659228	187.068304	-503.131471	-165.397833	857.959976	-315.707028	33.166737	82.290322	-515.503340	33.486513	81.544772	-115.102627	
1	0.0050	463.302083	1315.090243	-147.483473	465.661771	1320.879008	-502.685244	481.172737	1357.447095	-331.366374	438.171529	1227.560877	-329.007885	585.909306	1071.085898	-134.101613	726.844230	889.625700	-122.396960	561.403209	1062.685329	-540.759396	708.444944	885.941335	-525.804418	0.639991	1097.797742	-325.275100	145.640231	1098.182278	-464.540852	128.721018	1115.627831	-188.716857	190.451469	1064.593905	-439.806662	177.589096	1081.349766	-208.455094	16.495264	1141.915623	-283.148920	25.537341	1154.040283	-368.895341	109.546115	1041.854455	-138.756345	88.903206	1000.623066	-496.007352	196.624607	1020.454709	-138.369255	282.482878	1015.924439	-147.340081	357.349736	981.951691	-122.359866	290.322131	1037.832109	-177.632505	484.685530	902.376380	-151.644409	480.710918	881.139702	-266.088117	457.301050	792.336166	-137.523728	426.788462	711.475014	-156.910674	364.350593	650.543098	-150.057152	437.238269	706.168334	-194.052379	290.796273	554.217274	-155.642459	298.033881	575.141997	-235.759732	212.375452	510.377649	-196.656762	497.226234	489.684061	-195.682613	388.904400	477.487454	-137.128191	414.716286	489.473780	-244.934049	186.256876	895.554281	-511.762083	247.762859	834.297195	-508.617633	276.505712	850.359769	-491.041909	268.364173	747.395755	-506.431496	316.475990	657.548774	-484.798491	318.712227	628.300640	-383.009952	276.286312	560.420265	-505.646585	257.142847	477.646892	-488.734849	197.584834	410.017768	-492.462298	274.953110	472.200380	-452.751730	134.098553	324.328539	-475.336183	151.476948	315.462180	-398.693643	58.021640	304.998354	-433.137194	303.894454	157.497302	-446.209148	197.688455	187.045590	-503.152786	-165.366013	858.172003	-315.450322	33.190771	82.265387	-515.579099	33.488790	81.538438	-115.105617	
2	0.0100	463.220498	1314.690200	-147.662426	465.676529	1320.892509	-502.676423	481.172075	1357.481140	-331.382612	438.228332	1227.554641	-329.023936	585.916773	1071.086227	-134.106108	726.837872	889.620999	-122.411804	561.421935	1062.706051	-540.733610	708.453796	885.942070	-525.804198	0.631805	1097.820647	-325.265725	145.630940	1098.177871	-464.542289	128.715593	1115.646302	-188.697444	190.460428	1064.595668	-439.814936	177.588739	1081.357572	-208.455918	16.489989	1141.953008	-283.115672	25.519755	1154.065114	-368.889194	109.545689	1041.877841	-138.747806	88.896811	1000.632102	-496.014390	196.622468	1020.455481	-138.364451	282.483359	1015.915709	-147.347582	357.349472	981.941884	-122.372249	290.316794	1037.833840	-177.615121	484.661636	902.369864	-151.664773	480.696296	881.132032	-266.078233	457.255201	792.319466	-137.528300	426.763444	711.498488	-156.913590	364.322759	650.549964	-150.060852	437.214928	706.192000	-194.069061	290.754599	554.219651	-155.664904	298.015582	575.135177	-235.765173	212.344508	510.368562	-196.641196	497.201777	489.715115	-195.684209	388.894226	477.496055	-137.139799	414.713660	489.473384	-244.937608	186.258900	895.578280	-511.745880	247.774596	834.320433	-508.590188	276.507497	850.410149	-491.016736	268.379594	747.432191	-506.417042	316.488194	657.587492	-484.795808	318.725046	628.334969	-383.006689	276.306591	560.447470	-505.648517	257.167542	477.672197	-488.737873	197.630835	410.019419	-492.473038	274.972850	472.212244	-452.748922	134.155297	324.328898	-475.355432	151.528118	315.426916	-398.725030	58.076996	305.018418	-433.135505	303.907587	157.446563	-446.228011	197.716998	187.040913	-503.148241	-165.364411	858.081269	-315.786065	33.211186	82.249428	-515.586352	33.487733	81.551665	-115.104099	
3	0.0150	463.228176	1314.690555	-147.663825	465.704935	1320.899986	-502.687452	481.165735	1357.487730	-331.368143	438.264437	1227.560015	-329.023602	586.200894	1070.919346	-134.446224	726.841133	889.627738	-122.408867	561.584433	1062.683915	-540.443963	708.037839	886.109952	-526.160848	0.580419	1097.928179	-325.709061	145.631778	1098.187058	-464.523755	128.714725	1115.639590	-188.697213	190.446888	1064.605042	-439.832686	177.605985	1081.376162	-208.436862	17.990470	1140.881122	-284.380969	26.990743	1153.558714	-369.632111	110.185103	1041.028240	-139.822181	88.883151	1000.806953	-495.957271	194.702988	1019.756846	-138.581322	282.470254	1015.904979	-147.338769	357.341595	981.947031	-122.362455	290.072023	1037.846769	-177.439658	484.801181	902.291415	-151.740662	480.685534	881.143516	-266.077195	457.240901	792.333087	-137.527003	423.899668	709.534926	-158.232033	364.289457	650.548192	-150.068460	435.454266	705.345972	-194.181858	290.181659	555.063642	-154.906637	297.810074	575.124566	-236.110260	212.330460	510.373200	-196.655987	497.177021	489.731775	-195.691847	388.860961	477.512141	-137.146792	414.685186	489.494683	-244.937973	186.278907	895.609625	-511.726969	247.840688	834.166619	-508.436202	276.488572	850.926451	-491.421175	268.406952	747.473803	-506.426055	316.828664	657.169694	-484.988883	318.717958	628.353890	-383.021432	276.327956	560.452872	-505.644816	257.264807	477.730910	-488.826577	197.684665	410.021403	-492.480311	275.055006	472.201664	-452.758786	134.168882	324.535776	-475.204608	151.548002	315.432551	-398.729954	58.180574	305.073855	-433.196098	303.915802	157.405921	-446.227107	197.740327	187.018102	-503.151740	-165.363240	858.078160	-315.844526	33.200463	82.240958	-515.566165	33.481983	81.566584	-115.101768	
